<svg xmlns="http://www.w3.org/2000/svg" xmlns:xlink="http://www.w3.org/1999/xlink" width="621" zoomAndPan="magnify" viewBox="0 0 465.75 149.999998" height="200" preserveAspectRatio="xMidYMid meet" version="1.0"><defs><g/><clipPath id="181390ccb0"><path d="M 0 0.0390625 L 465.5 0.0390625 L 465.5 149.957031 L 0 149.957031 Z M 0 0.0390625 " clip-rule="nonzero"/></clipPath><clipPath id="41c5837948"><path d="M 380.464844 46.417969 L 419 46.417969 L 419 102 L 380.464844 102 Z M 380.464844 46.417969 " clip-rule="nonzero"/></clipPath><clipPath id="0b542b61a2"><path d="M 380.464844 47 L 419 47 L 419 102 L 380.464844 102 Z M 380.464844 47 " clip-rule="nonzero"/></clipPath><clipPath id="17d8f7c4ad"><path d="M 380.464844 69 L 409 69 L 409 102 L 380.464844 102 Z M 380.464844 69 " clip-rule="nonzero"/></clipPath><clipPath id="d22a2ea6ff"><path d="M 386 50 L 420.945312 50 L 420.945312 102 L 386 102 Z M 386 50 " clip-rule="nonzero"/></clipPath><clipPath id="7e2c8a161c"><path d="M 386 53 L 420.945312 53 L 420.945312 75 L 386 75 Z M 386 53 " clip-rule="nonzero"/></clipPath><clipPath id="5cc67f361d"><path d="M 386 49 L 420.945312 49 L 420.945312 103 L 386 103 Z M 386 49 " clip-rule="nonzero"/></clipPath></defs><g clip-path="url(#181390ccb0)"><path fill="#ffffff" d="M 0 0.0390625 L 465.5 0.0390625 L 465.5 149.960938 L 0 149.960938 Z M 0 0.0390625 " fill-opacity="1" fill-rule="nonzero"/><path fill="#38b6ff" d="M 0 0.0390625 L 465.5 0.0390625 L 465.5 149.960938 L 0 149.960938 Z M 0 0.0390625 " fill-opacity="1" fill-rule="nonzero"/></g><g clip-path="url(#41c5837948)"><path fill="#323738" d="M 418.097656 50.703125 L 412.542969 47.523438 C 412.296875 47.347656 412.039062 47.199219 411.761719 47.078125 L 411.679688 47.03125 L 411.675781 47.039062 C 410.179688 46.429688 408.25 46.648438 406.144531 47.863281 L 389.03125 57.734375 C 384.324219 60.453125 380.476562 67.113281 380.476562 72.542969 L 380.476562 92.289062 C 380.476562 94.9375 381.394531 96.816406 382.878906 97.738281 L 382.863281 97.761719 L 389.039062 101.257812 L 392.511719 95.21875 L 406.144531 87.355469 C 410.847656 84.640625 414.699219 77.976562 414.699219 72.546875 L 414.699219 56.617188 Z M 418.097656 50.703125 " fill-opacity="1" fill-rule="nonzero"/></g><g clip-path="url(#0b542b61a2)"><path fill="#252b2d" d="M 418.097656 50.703125 L 412.148438 49.308594 C 411.90625 49.132812 410.691406 49.136719 410.414062 49.015625 L 409.976562 48.839844 L 409.179688 48.695312 C 407.6875 48.085938 408.25 46.648438 406.144531 47.863281 L 389.03125 57.734375 C 384.324219 60.453125 380.476562 67.113281 380.476562 72.542969 L 380.476562 92.289062 C 380.476562 94.9375 381.394531 96.816406 382.878906 97.738281 L 382.863281 97.761719 L 389.039062 101.257812 L 392.511719 95.21875 L 406.144531 87.355469 C 410.847656 84.640625 414.699219 77.976562 414.699219 72.546875 L 414.699219 56.617188 Z M 418.097656 50.703125 " fill-opacity="1" fill-rule="nonzero"/></g><g clip-path="url(#17d8f7c4ad)"><path fill="#090c0c" d="M 380.800781 69.699219 C 380.59375 70.667969 380.476562 71.625 380.476562 72.542969 L 380.476562 92.289062 C 380.476562 94.9375 381.398438 96.816406 382.878906 97.738281 L 382.867188 97.761719 L 389.042969 101.257812 L 392.511719 95.21875 L 406.144531 87.355469 C 406.945312 86.894531 407.714844 86.308594 408.453125 85.644531 Z M 380.800781 69.699219 " fill-opacity="1" fill-rule="nonzero"/></g><g clip-path="url(#d22a2ea6ff)"><path fill="#3b4142" d="M 394.914062 61.144531 C 390.207031 63.859375 386.355469 70.523438 386.355469 75.953125 L 386.355469 95.699219 C 386.355469 101.128906 390.207031 103.347656 394.914062 100.632812 L 412.023438 90.761719 C 416.730469 88.046875 420.582031 81.382812 420.582031 75.953125 L 420.582031 56.207031 C 420.582031 50.777344 416.730469 48.558594 412.023438 51.273438 Z M 394.914062 61.144531 " fill-opacity="1" fill-rule="nonzero"/><path fill="#383e3f" d="M 420.582031 56.207031 C 420.582031 50.777344 416.730469 48.558594 412.023438 51.273438 L 394.914062 61.144531 C 390.207031 63.859375 386.355469 70.523438 386.355469 75.953125 L 386.355469 95.699219 C 386.355469 101.128906 390.207031 103.347656 394.914062 100.632812 " fill-opacity="0.2" fill-rule="nonzero"/></g><g clip-path="url(#7e2c8a161c)"><path fill="#3b4142" d="M 386.476562 74.46875 L 420.464844 54.859375 C 420.519531 54.449219 420.550781 54.042969 420.566406 53.640625 L 386.371094 73.371094 C 386.386719 73.753906 386.421875 74.121094 386.476562 74.46875 Z M 386.476562 74.46875 " fill-opacity="1" fill-rule="nonzero"/></g><g clip-path="url(#5cc67f361d)"><path fill="#4f5759" d="M 391.113281 102.144531 C 388.007812 102.144531 386.003906 99.613281 386.003906 95.699219 L 386.003906 75.953125 C 386.003906 70.398438 389.921875 63.617188 394.734375 60.839844 L 411.847656 50.964844 C 413.234375 50.167969 414.574219 49.761719 415.828125 49.761719 C 418.929688 49.761719 420.933594 52.292969 420.933594 56.207031 L 420.933594 75.953125 C 420.933594 81.511719 417.015625 88.289062 412.203125 91.066406 L 395.089844 100.941406 C 393.703125 101.738281 392.363281 102.144531 391.113281 102.144531 Z M 415.828125 50.464844 C 414.699219 50.464844 413.480469 50.839844 412.203125 51.574219 L 395.089844 61.449219 C 390.46875 64.113281 386.710938 70.621094 386.710938 75.953125 L 386.710938 95.695312 C 386.710938 99.238281 388.394531 101.4375 391.113281 101.4375 C 392.238281 101.4375 393.457031 101.066406 394.734375 100.328125 L 411.847656 90.457031 C 416.46875 87.789062 420.226562 81.285156 420.226562 75.953125 L 420.226562 56.207031 C 420.226562 52.664062 418.542969 50.464844 415.828125 50.464844 Z M 415.828125 50.464844 " fill-opacity="1" fill-rule="nonzero"/></g><path fill="#ff4d8d" d="M 393.167969 66.683594 C 393.167969 66.226562 393.488281 65.667969 393.882812 65.441406 C 394.277344 65.214844 394.601562 65.402344 394.601562 65.855469 C 394.601562 66.3125 394.277344 66.871094 393.882812 67.097656 C 393.488281 67.324219 393.167969 67.136719 393.167969 66.683594 Z M 393.167969 66.683594 " fill-opacity="1" fill-rule="nonzero"/><path fill="#ea2864" d="M 393.882812 67.097656 C 393.488281 67.324219 393.167969 67.136719 393.167969 66.683594 C 393.167969 66.226562 393.488281 65.667969 393.882812 65.441406 " fill-opacity="1" fill-rule="nonzero"/><path fill="#f7d011" d="M 396.222656 64.9375 C 396.222656 64.484375 396.542969 63.925781 396.9375 63.699219 C 397.332031 63.472656 397.652344 63.65625 397.652344 64.113281 C 397.652344 64.566406 397.332031 65.125 396.9375 65.351562 C 396.542969 65.578125 396.222656 65.394531 396.222656 64.9375 Z M 396.222656 64.9375 " fill-opacity="1" fill-rule="nonzero"/><path fill="#f4b414" d="M 396.9375 65.351562 C 396.542969 65.578125 396.222656 65.394531 396.222656 64.9375 C 396.222656 64.484375 396.542969 63.925781 396.9375 63.699219 " fill-opacity="1" fill-rule="nonzero"/><path fill="#15eaa8" d="M 399.273438 63.195312 C 399.273438 62.738281 399.597656 62.179688 399.992188 61.953125 C 400.382812 61.726562 400.707031 61.910156 400.707031 62.367188 C 400.707031 62.820312 400.382812 63.378906 399.992188 63.605469 C 399.597656 63.835938 399.273438 63.648438 399.273438 63.195312 Z M 399.273438 63.195312 " fill-opacity="1" fill-rule="nonzero"/><path fill="#08c1b3" d="M 399.992188 63.605469 C 399.597656 63.835938 399.273438 63.648438 399.273438 63.195312 C 399.273438 62.738281 399.597656 62.179688 399.992188 61.953125 " fill-opacity="1" fill-rule="nonzero"/><path fill="#ffffff" d="M 402.035156 81.714844 C 401.816406 81.714844 401.59375 81.660156 401.394531 81.542969 L 394.722656 77.695312 C 394.109375 77.339844 393.898438 76.554688 394.253906 75.941406 C 394.609375 75.328125 395.390625 75.117188 396.007812 75.472656 L 402.675781 79.320312 C 403.292969 79.675781 403.5 80.460938 403.144531 81.074219 C 402.910156 81.484375 402.476562 81.714844 402.035156 81.714844 Z M 402.035156 81.714844 " fill-opacity="1" fill-rule="nonzero"/><path fill="#ffffff" d="M 395.363281 93.257812 C 395.148438 93.257812 394.925781 93.203125 394.722656 93.085938 C 394.109375 92.734375 393.898438 91.949219 394.253906 91.335938 L 400.921875 79.789062 C 401.277344 79.175781 402.058594 78.964844 402.675781 79.320312 C 403.292969 79.675781 403.5 80.457031 403.148438 81.074219 L 396.476562 92.617188 C 396.238281 93.027344 395.808594 93.257812 395.363281 93.257812 Z M 395.363281 93.257812 " fill-opacity="1" fill-rule="nonzero"/><path fill="#ffffff" d="M 404.261719 88.128906 C 403.816406 88.128906 403.386719 87.898438 403.148438 87.488281 C 402.792969 86.875 403.003906 86.089844 403.617188 85.734375 L 412.511719 80.605469 C 413.125 80.25 413.910156 80.460938 414.265625 81.074219 C 414.617188 81.6875 414.410156 82.472656 413.792969 82.828125 L 404.902344 87.957031 C 404.699219 88.074219 404.476562 88.128906 404.261719 88.128906 Z M 404.261719 88.128906 " fill-opacity="1" fill-rule="nonzero"/><g fill="#ffffff" fill-opacity="1"><g transform="translate(37.286387, 65.616704)"><g><path d="M 3.015625 -12.171875 L 3.015625 -7.421875 C 3.347656 -7.867188 3.757812 -8.203125 4.25 -8.421875 C 4.738281 -8.648438 5.238281 -8.765625 5.75 -8.765625 C 6.582031 -8.765625 7.191406 -8.539062 7.578125 -8.09375 C 7.972656 -7.65625 8.171875 -7.035156 8.171875 -6.234375 L 8.171875 0 L 6.796875 0 L 6.796875 -6.203125 C 6.796875 -6.722656 6.675781 -7.097656 6.4375 -7.328125 C 6.195312 -7.566406 5.820312 -7.6875 5.3125 -7.6875 C 4.988281 -7.6875 4.675781 -7.613281 4.375 -7.46875 C 4.082031 -7.320312 3.816406 -7.140625 3.578125 -6.921875 C 3.347656 -6.703125 3.160156 -6.476562 3.015625 -6.25 L 3.015625 0 L 1.640625 0 L 1.640625 -12.03125 Z M 3.015625 -12.171875 "/></g></g></g><g fill="#ffffff" fill-opacity="1"><g transform="translate(47.074669, 65.616704)"><g><path d="M 2.71875 -3.8125 C 2.738281 -3.144531 2.863281 -2.597656 3.09375 -2.171875 C 3.320312 -1.753906 3.625 -1.445312 4 -1.25 C 4.375 -1.050781 4.785156 -0.953125 5.234375 -0.953125 C 5.671875 -0.953125 6.066406 -1.015625 6.421875 -1.140625 C 6.773438 -1.273438 7.140625 -1.472656 7.515625 -1.734375 L 8.171875 -0.828125 C 7.765625 -0.503906 7.300781 -0.253906 6.78125 -0.078125 C 6.269531 0.0976562 5.75 0.1875 5.21875 0.1875 C 4.382812 0.1875 3.671875 0 3.078125 -0.375 C 2.492188 -0.75 2.046875 -1.269531 1.734375 -1.9375 C 1.429688 -2.613281 1.28125 -3.394531 1.28125 -4.28125 C 1.28125 -5.15625 1.429688 -5.925781 1.734375 -6.59375 C 2.046875 -7.269531 2.484375 -7.800781 3.046875 -8.1875 C 3.609375 -8.570312 4.269531 -8.765625 5.03125 -8.765625 C 5.757812 -8.765625 6.382812 -8.59375 6.90625 -8.25 C 7.425781 -7.914062 7.820312 -7.429688 8.09375 -6.796875 C 8.375 -6.171875 8.515625 -5.425781 8.515625 -4.5625 C 8.515625 -4.414062 8.507812 -4.273438 8.5 -4.140625 C 8.5 -4.015625 8.492188 -3.90625 8.484375 -3.8125 Z M 5.046875 -7.640625 C 4.410156 -7.640625 3.878906 -7.410156 3.453125 -6.953125 C 3.023438 -6.503906 2.78125 -5.8125 2.71875 -4.875 L 7.203125 -4.875 C 7.179688 -5.789062 6.976562 -6.476562 6.59375 -6.9375 C 6.207031 -7.40625 5.691406 -7.640625 5.046875 -7.640625 Z M 5.046875 -7.640625 "/></g></g></g><g fill="#ffffff" fill-opacity="1"><g transform="translate(56.862952, 65.616704)"><g><path d="M 8.78125 -8.59375 L 5.765625 0.0625 C 5.566406 0.644531 5.3125 1.175781 5 1.65625 C 4.695312 2.132812 4.296875 2.53125 3.796875 2.84375 C 3.304688 3.164062 2.6875 3.367188 1.9375 3.453125 L 1.71875 2.359375 C 2.3125 2.253906 2.78125 2.101562 3.125 1.90625 C 3.46875 1.707031 3.738281 1.445312 3.9375 1.125 C 4.132812 0.8125 4.3125 0.4375 4.46875 0 L 4 0 L 1 -8.59375 L 2.46875 -8.59375 L 4.9375 -1.046875 L 7.359375 -8.59375 Z M 8.78125 -8.59375 "/></g></g></g><g fill="#ffffff" fill-opacity="1"><g transform="translate(66.651235, 65.616704)"><g><path d="M 5.625 -11.234375 L 5.484375 -3.703125 L 4.25 -3.703125 L 4.09375 -11.234375 Z M 4.875 -2 C 5.1875 -2 5.445312 -1.890625 5.65625 -1.671875 C 5.875 -1.460938 5.984375 -1.207031 5.984375 -0.90625 C 5.984375 -0.601562 5.875 -0.34375 5.65625 -0.125 C 5.445312 0.0820312 5.1875 0.1875 4.875 0.1875 C 4.5625 0.1875 4.300781 0.0820312 4.09375 -0.125 C 3.894531 -0.34375 3.796875 -0.601562 3.796875 -0.90625 C 3.796875 -1.207031 3.894531 -1.460938 4.09375 -1.671875 C 4.300781 -1.890625 4.5625 -2 4.875 -2 Z M 4.875 -2 "/></g></g></g><g fill="#ffffff" fill-opacity="1"><g transform="translate(76.439517, 65.616704)"><g/></g></g><g fill="#ffffff" fill-opacity="1"><g transform="translate(86.2278, 65.616704)"><g><path d="M 8.109375 -11.234375 L 8.109375 -10.09375 L 5.609375 -10.09375 L 5.609375 -1.140625 L 8.109375 -1.140625 L 8.109375 0 L 1.6875 0 L 1.6875 -1.140625 L 4.171875 -1.140625 L 4.171875 -10.09375 L 1.6875 -10.09375 L 1.6875 -11.234375 Z M 8.109375 -11.234375 "/></g></g></g><g fill="#ffffff" fill-opacity="1"><g transform="translate(96.016082, 65.616704)"><g/></g></g><g fill="#ffffff" fill-opacity="1"><g transform="translate(105.804365, 65.616704)"><g><path d="M 7.796875 -1.875 C 7.796875 -1.53125 7.847656 -1.28125 7.953125 -1.125 C 8.066406 -0.96875 8.242188 -0.851562 8.484375 -0.78125 L 8.15625 0.1875 C 7.789062 0.132812 7.46875 0.015625 7.1875 -0.171875 C 6.90625 -0.359375 6.703125 -0.640625 6.578125 -1.015625 C 6.273438 -0.617188 5.890625 -0.316406 5.421875 -0.109375 C 4.960938 0.0859375 4.453125 0.1875 3.890625 0.1875 C 3.035156 0.1875 2.359375 -0.0507812 1.859375 -0.53125 C 1.367188 -1.019531 1.125 -1.664062 1.125 -2.46875 C 1.125 -3.351562 1.46875 -4.03125 2.15625 -4.5 C 2.84375 -4.976562 3.835938 -5.21875 5.140625 -5.21875 L 6.40625 -5.21875 L 6.40625 -5.921875 C 6.40625 -6.546875 6.222656 -6.988281 5.859375 -7.25 C 5.503906 -7.507812 5.003906 -7.640625 4.359375 -7.640625 C 4.078125 -7.640625 3.742188 -7.601562 3.359375 -7.53125 C 2.984375 -7.46875 2.570312 -7.351562 2.125 -7.1875 L 1.765625 -8.234375 C 2.296875 -8.421875 2.789062 -8.554688 3.25 -8.640625 C 3.71875 -8.722656 4.160156 -8.765625 4.578125 -8.765625 C 5.648438 -8.765625 6.453125 -8.515625 6.984375 -8.015625 C 7.523438 -7.523438 7.796875 -6.851562 7.796875 -6 Z M 4.234375 -0.859375 C 4.660156 -0.859375 5.066406 -0.960938 5.453125 -1.171875 C 5.835938 -1.390625 6.15625 -1.691406 6.40625 -2.078125 L 6.40625 -4.28125 L 5.171875 -4.28125 C 4.222656 -4.28125 3.550781 -4.113281 3.15625 -3.78125 C 2.769531 -3.457031 2.578125 -3.023438 2.578125 -2.484375 C 2.578125 -1.953125 2.710938 -1.546875 2.984375 -1.265625 C 3.265625 -0.992188 3.679688 -0.859375 4.234375 -0.859375 Z M 4.234375 -0.859375 "/></g></g></g><g fill="#ffffff" fill-opacity="1"><g transform="translate(115.592647, 65.616704)"><g><path d="M 7.296875 -8.765625 C 7.578125 -8.765625 7.84375 -8.703125 8.09375 -8.578125 C 8.34375 -8.460938 8.550781 -8.234375 8.71875 -7.890625 C 8.882812 -7.546875 8.96875 -7.046875 8.96875 -6.390625 L 8.96875 0 L 7.6875 0 L 7.6875 -6.171875 C 7.6875 -6.710938 7.65625 -7.101562 7.59375 -7.34375 C 7.53125 -7.582031 7.34375 -7.703125 7.03125 -7.703125 C 6.769531 -7.703125 6.515625 -7.617188 6.265625 -7.453125 C 6.015625 -7.296875 5.769531 -7.035156 5.53125 -6.671875 L 5.53125 0 L 4.25 0 L 4.25 -6.171875 C 4.25 -6.710938 4.210938 -7.101562 4.140625 -7.34375 C 4.078125 -7.582031 3.894531 -7.703125 3.59375 -7.703125 C 3.320312 -7.703125 3.0625 -7.617188 2.8125 -7.453125 C 2.570312 -7.296875 2.332031 -7.035156 2.09375 -6.671875 L 2.09375 0 L 0.828125 0 L 0.828125 -8.59375 L 1.90625 -8.59375 L 1.984375 -7.59375 C 2.210938 -7.925781 2.472656 -8.203125 2.765625 -8.421875 C 3.054688 -8.648438 3.414062 -8.765625 3.84375 -8.765625 C 4.175781 -8.765625 4.484375 -8.6875 4.765625 -8.53125 C 5.054688 -8.375 5.269531 -8.078125 5.40625 -7.640625 C 5.644531 -7.972656 5.910156 -8.242188 6.203125 -8.453125 C 6.492188 -8.660156 6.859375 -8.765625 7.296875 -8.765625 Z M 7.296875 -8.765625 "/></g></g></g><g fill="#ffffff" fill-opacity="1"><g transform="translate(125.38093, 65.616704)"><g><path d="M 3.453125 -1.25 C 3.453125 -1.519531 3.515625 -1.757812 3.640625 -1.96875 C 3.765625 -2.1875 3.929688 -2.359375 4.140625 -2.484375 C 4.359375 -2.617188 4.601562 -2.6875 4.875 -2.6875 C 5.15625 -2.6875 5.40625 -2.617188 5.625 -2.484375 C 5.84375 -2.359375 6.015625 -2.1875 6.140625 -1.96875 C 6.265625 -1.757812 6.328125 -1.519531 6.328125 -1.25 C 6.328125 -0.988281 6.265625 -0.75 6.140625 -0.53125 C 6.015625 -0.3125 5.84375 -0.132812 5.625 0 C 5.40625 0.125 5.15625 0.1875 4.875 0.1875 C 4.601562 0.1875 4.359375 0.125 4.140625 0 C 3.929688 -0.132812 3.765625 -0.3125 3.640625 -0.53125 C 3.515625 -0.75 3.453125 -0.988281 3.453125 -1.25 Z M 3.453125 -1.25 "/></g></g></g><g fill="#ffffff" fill-opacity="1"><g transform="translate(135.169213, 65.616704)"><g><path d="M 3.453125 -1.25 C 3.453125 -1.519531 3.515625 -1.757812 3.640625 -1.96875 C 3.765625 -2.1875 3.929688 -2.359375 4.140625 -2.484375 C 4.359375 -2.617188 4.601562 -2.6875 4.875 -2.6875 C 5.15625 -2.6875 5.40625 -2.617188 5.625 -2.484375 C 5.84375 -2.359375 6.015625 -2.1875 6.140625 -1.96875 C 6.265625 -1.757812 6.328125 -1.519531 6.328125 -1.25 C 6.328125 -0.988281 6.265625 -0.75 6.140625 -0.53125 C 6.015625 -0.3125 5.84375 -0.132812 5.625 0 C 5.40625 0.125 5.15625 0.1875 4.875 0.1875 C 4.601562 0.1875 4.359375 0.125 4.140625 0 C 3.929688 -0.132812 3.765625 -0.3125 3.640625 -0.53125 C 3.515625 -0.75 3.453125 -0.988281 3.453125 -1.25 Z M 3.453125 -1.25 "/></g></g></g><g fill="#ffffff" fill-opacity="1"><g transform="translate(144.957495, 65.616704)"><g><path d="M 3.453125 -1.25 C 3.453125 -1.519531 3.515625 -1.757812 3.640625 -1.96875 C 3.765625 -2.1875 3.929688 -2.359375 4.140625 -2.484375 C 4.359375 -2.617188 4.601562 -2.6875 4.875 -2.6875 C 5.15625 -2.6875 5.40625 -2.617188 5.625 -2.484375 C 5.84375 -2.359375 6.015625 -2.1875 6.140625 -1.96875 C 6.265625 -1.757812 6.328125 -1.519531 6.328125 -1.25 C 6.328125 -0.988281 6.265625 -0.75 6.140625 -0.53125 C 6.015625 -0.3125 5.84375 -0.132812 5.625 0 C 5.40625 0.125 5.15625 0.1875 4.875 0.1875 C 4.601562 0.1875 4.359375 0.125 4.140625 0 C 3.929688 -0.132812 3.765625 -0.3125 3.640625 -0.53125 C 3.515625 -0.75 3.453125 -0.988281 3.453125 -1.25 Z M 3.453125 -1.25 "/></g></g></g><g fill="#ffffff" fill-opacity="1"><g transform="translate(36.91396, 91.303263)"><g><path d="M 12.9375 -16.484375 L 13.859375 0 L 10.453125 0 L 10.25 -7.0625 C 10.238281 -7.71875 10.234375 -8.300781 10.234375 -8.8125 C 10.242188 -9.332031 10.253906 -9.816406 10.265625 -10.265625 C 10.285156 -10.722656 10.3125 -11.179688 10.34375 -11.640625 C 10.382812 -12.109375 10.421875 -12.617188 10.453125 -13.171875 L 8.609375 -2.8125 L 5.65625 -2.8125 L 3.65625 -13.171875 C 3.695312 -12.648438 3.734375 -12.15625 3.765625 -11.6875 C 3.804688 -11.226562 3.832031 -10.765625 3.84375 -10.296875 C 3.863281 -9.828125 3.878906 -9.320312 3.890625 -8.78125 C 3.898438 -8.25 3.894531 -7.65625 3.875 -7 L 3.765625 0 L 0.421875 0 L 1.34375 -16.484375 L 5.359375 -16.484375 L 7.1875 -5.828125 L 8.921875 -16.484375 Z M 12.9375 -16.484375 "/></g></g></g><g fill="#ffffff" fill-opacity="1"><g transform="translate(51.193888, 91.303263)"><g><path d="M 12.296875 -3.640625 C 12.296875 -3.160156 12.363281 -2.8125 12.5 -2.59375 C 12.632812 -2.382812 12.847656 -2.226562 13.140625 -2.125 L 12.359375 0.359375 C 11.617188 0.285156 10.988281 0.117188 10.46875 -0.140625 C 9.957031 -0.398438 9.554688 -0.789062 9.265625 -1.3125 C 8.785156 -0.726562 8.164062 -0.296875 7.40625 -0.015625 C 6.65625 0.265625 5.890625 0.40625 5.109375 0.40625 C 3.804688 0.40625 2.765625 0.0351562 1.984375 -0.703125 C 1.210938 -1.453125 0.828125 -2.40625 0.828125 -3.5625 C 0.828125 -4.9375 1.363281 -5.992188 2.4375 -6.734375 C 3.519531 -7.484375 5.035156 -7.859375 6.984375 -7.859375 L 8.6875 -7.859375 L 8.6875 -8.34375 C 8.6875 -9 8.472656 -9.484375 8.046875 -9.796875 C 7.617188 -10.117188 7 -10.28125 6.1875 -10.28125 C 5.78125 -10.28125 5.257812 -10.222656 4.625 -10.109375 C 3.988281 -9.992188 3.351562 -9.828125 2.71875 -9.609375 L 1.859375 -12.109375 C 2.671875 -12.421875 3.519531 -12.65625 4.40625 -12.8125 C 5.289062 -12.96875 6.082031 -13.046875 6.78125 -13.046875 C 8.664062 -13.046875 10.054688 -12.660156 10.953125 -11.890625 C 11.847656 -11.128906 12.296875 -10.03125 12.296875 -8.59375 Z M 6.40625 -2.28125 C 6.8125 -2.28125 7.234375 -2.398438 7.671875 -2.640625 C 8.117188 -2.890625 8.457031 -3.234375 8.6875 -3.671875 L 8.6875 -5.71875 L 7.765625 -5.71875 C 6.710938 -5.71875 5.941406 -5.554688 5.453125 -5.234375 C 4.960938 -4.921875 4.71875 -4.453125 4.71875 -3.828125 C 4.71875 -3.347656 4.863281 -2.96875 5.15625 -2.6875 C 5.457031 -2.414062 5.875 -2.28125 6.40625 -2.28125 Z M 6.40625 -2.28125 "/></g></g></g><g fill="#ffffff" fill-opacity="1"><g transform="translate(65.473816, 91.303263)"><g><path d="M 13.046875 -0.734375 C 12.546875 -0.421875 11.945312 -0.15625 11.25 0.0625 C 10.550781 0.289062 9.769531 0.40625 8.90625 0.40625 C 7.25 0.40625 6.019531 -0.015625 5.21875 -0.859375 C 4.414062 -1.703125 4.015625 -2.851562 4.015625 -4.3125 L 4.015625 -10.046875 L 1.375 -10.046875 L 1.375 -12.640625 L 4.015625 -12.640625 L 4.015625 -15.375 L 7.78125 -15.828125 L 7.78125 -12.640625 L 11.84375 -12.640625 L 11.484375 -10.046875 L 7.78125 -10.046875 L 7.78125 -4.3125 C 7.78125 -3.6875 7.921875 -3.238281 8.203125 -2.96875 C 8.492188 -2.695312 8.953125 -2.5625 9.578125 -2.5625 C 10.023438 -2.5625 10.429688 -2.613281 10.796875 -2.71875 C 11.160156 -2.820312 11.492188 -2.957031 11.796875 -3.125 Z M 13.046875 -0.734375 "/></g></g></g><g fill="#ffffff" fill-opacity="1"><g transform="translate(79.753744, 91.303263)"><g><path d="M 5.421875 -18.03125 L 5.421875 -11.390625 C 5.953125 -11.953125 6.53125 -12.367188 7.15625 -12.640625 C 7.78125 -12.910156 8.441406 -13.046875 9.140625 -13.046875 C 10.265625 -13.046875 11.125 -12.71875 11.71875 -12.0625 C 12.3125 -11.40625 12.609375 -10.476562 12.609375 -9.28125 L 12.609375 0 L 8.859375 0 L 8.859375 -8.234375 C 8.859375 -8.992188 8.769531 -9.523438 8.59375 -9.828125 C 8.425781 -10.128906 8.109375 -10.28125 7.640625 -10.28125 C 7.378906 -10.28125 7.125 -10.21875 6.875 -10.09375 C 6.625 -9.96875 6.378906 -9.789062 6.140625 -9.5625 C 5.898438 -9.332031 5.660156 -9.0625 5.421875 -8.75 L 5.421875 0 L 1.671875 0 L 1.671875 -17.65625 Z M 5.421875 -18.03125 "/></g></g></g><g fill="#ffffff" fill-opacity="1"><g transform="translate(94.033672, 91.303263)"><g><path d="M 4.921875 -5.21875 C 5.015625 -4.53125 5.195312 -3.972656 5.46875 -3.546875 C 5.738281 -3.128906 6.085938 -2.820312 6.515625 -2.625 C 6.941406 -2.425781 7.421875 -2.328125 7.953125 -2.328125 C 8.535156 -2.328125 9.097656 -2.421875 9.640625 -2.609375 C 10.179688 -2.804688 10.703125 -3.0625 11.203125 -3.375 L 12.703125 -1.328125 C 12.109375 -0.828125 11.390625 -0.410156 10.546875 -0.078125 C 9.703125 0.242188 8.738281 0.40625 7.65625 0.40625 C 6.21875 0.40625 5.007812 0.117188 4.03125 -0.453125 C 3.050781 -1.035156 2.316406 -1.828125 1.828125 -2.828125 C 1.335938 -3.835938 1.09375 -5 1.09375 -6.3125 C 1.09375 -7.550781 1.328125 -8.679688 1.796875 -9.703125 C 2.273438 -10.722656 2.972656 -11.535156 3.890625 -12.140625 C 4.804688 -12.742188 5.929688 -13.046875 7.265625 -13.046875 C 8.460938 -13.046875 9.503906 -12.785156 10.390625 -12.265625 C 11.273438 -11.753906 11.960938 -11.015625 12.453125 -10.046875 C 12.941406 -9.085938 13.1875 -7.925781 13.1875 -6.5625 C 13.1875 -6.351562 13.175781 -6.125 13.15625 -5.875 C 13.144531 -5.632812 13.128906 -5.414062 13.109375 -5.21875 Z M 7.265625 -10.53125 C 6.585938 -10.53125 6.039062 -10.285156 5.625 -9.796875 C 5.21875 -9.316406 4.96875 -8.546875 4.875 -7.484375 L 9.515625 -7.484375 C 9.503906 -8.398438 9.320312 -9.132812 8.96875 -9.6875 C 8.625 -10.25 8.054688 -10.53125 7.265625 -10.53125 Z M 7.265625 -10.53125 "/></g></g></g><g fill="#ffffff" fill-opacity="1"><g transform="translate(108.313601, 91.303263)"><g><path d="M 5.421875 -12.640625 L 5.421875 -3.984375 C 5.421875 -3.367188 5.535156 -2.945312 5.765625 -2.71875 C 5.992188 -2.488281 6.304688 -2.375 6.703125 -2.375 C 7.097656 -2.375 7.488281 -2.5 7.875 -2.75 C 8.257812 -3 8.585938 -3.332031 8.859375 -3.75 L 8.859375 -12.640625 L 12.609375 -12.640625 L 12.609375 0 L 9.328125 0 L 9.15625 -1.46875 C 8.726562 -0.851562 8.164062 -0.382812 7.46875 -0.0625 C 6.769531 0.25 6.039062 0.40625 5.28125 0.40625 C 4.0625 0.40625 3.15625 0.0507812 2.5625 -0.65625 C 1.96875 -1.363281 1.671875 -2.316406 1.671875 -3.515625 L 1.671875 -12.640625 Z M 5.421875 -12.640625 "/></g></g></g><g fill="#ffffff" fill-opacity="1"><g transform="translate(122.593529, 91.303263)"><g><path d="M 6.734375 -2.28125 C 7.359375 -2.28125 7.863281 -2.378906 8.25 -2.578125 C 8.632812 -2.773438 8.828125 -3.070312 8.828125 -3.46875 C 8.828125 -3.738281 8.75 -3.960938 8.59375 -4.140625 C 8.445312 -4.328125 8.160156 -4.503906 7.734375 -4.671875 C 7.304688 -4.835938 6.671875 -5.035156 5.828125 -5.265625 C 5.054688 -5.472656 4.375 -5.734375 3.78125 -6.046875 C 3.195312 -6.367188 2.738281 -6.78125 2.40625 -7.28125 C 2.082031 -7.78125 1.921875 -8.40625 1.921875 -9.15625 C 1.921875 -9.90625 2.128906 -10.570312 2.546875 -11.15625 C 2.960938 -11.75 3.578125 -12.210938 4.390625 -12.546875 C 5.210938 -12.878906 6.21875 -13.046875 7.40625 -13.046875 C 8.53125 -13.046875 9.507812 -12.898438 10.34375 -12.609375 C 11.175781 -12.328125 11.898438 -11.960938 12.515625 -11.515625 L 11.015625 -9.296875 C 10.492188 -9.628906 9.929688 -9.890625 9.328125 -10.078125 C 8.722656 -10.273438 8.117188 -10.375 7.515625 -10.375 C 6.898438 -10.375 6.441406 -10.289062 6.140625 -10.125 C 5.847656 -9.96875 5.703125 -9.726562 5.703125 -9.40625 C 5.703125 -9.1875 5.773438 -9 5.921875 -8.84375 C 6.078125 -8.6875 6.367188 -8.523438 6.796875 -8.359375 C 7.234375 -8.203125 7.863281 -8.003906 8.6875 -7.765625 C 9.5 -7.535156 10.207031 -7.269531 10.8125 -6.96875 C 11.425781 -6.664062 11.898438 -6.265625 12.234375 -5.765625 C 12.566406 -5.265625 12.734375 -4.597656 12.734375 -3.765625 C 12.734375 -2.847656 12.457031 -2.078125 11.90625 -1.453125 C 11.363281 -0.835938 10.640625 -0.375 9.734375 -0.0625 C 8.828125 0.25 7.835938 0.40625 6.765625 0.40625 C 5.535156 0.40625 4.453125 0.234375 3.515625 -0.109375 C 2.585938 -0.460938 1.789062 -0.925781 1.125 -1.5 L 3.015625 -3.609375 C 3.515625 -3.234375 4.070312 -2.914062 4.6875 -2.65625 C 5.3125 -2.40625 5.992188 -2.28125 6.734375 -2.28125 Z M 6.734375 -2.28125 "/></g></g></g><g fill="#ffffff" fill-opacity="1"><g transform="translate(136.873457, 91.303263)"><g/></g></g><g fill="#ffffff" fill-opacity="1"><g transform="translate(151.153385, 91.303263)"><g><path d="M 9.5625 -4.984375 C 9.5625 -5.566406 9.445312 -6.023438 9.21875 -6.359375 C 9 -6.691406 8.679688 -6.929688 8.265625 -7.078125 C 7.859375 -7.222656 7.382812 -7.296875 6.84375 -7.296875 L 5.234375 -7.296875 L 5.234375 -2.84375 L 6.671875 -2.84375 C 7.054688 -2.84375 7.421875 -2.867188 7.765625 -2.921875 C 8.109375 -2.984375 8.414062 -3.085938 8.6875 -3.234375 C 8.96875 -3.390625 9.179688 -3.609375 9.328125 -3.890625 C 9.484375 -4.171875 9.5625 -4.535156 9.5625 -4.984375 Z M 8.953125 -11.890625 C 8.953125 -12.535156 8.742188 -13.003906 8.328125 -13.296875 C 7.921875 -13.585938 7.289062 -13.734375 6.4375 -13.734375 L 5.234375 -13.734375 L 5.234375 -9.90625 L 6.5625 -9.90625 C 7.394531 -9.90625 8 -10.0625 8.375 -10.375 C 8.757812 -10.6875 8.953125 -11.191406 8.953125 -11.890625 Z M 13.59375 -4.828125 C 13.59375 -3.878906 13.410156 -3.085938 13.046875 -2.453125 C 12.679688 -1.828125 12.179688 -1.335938 11.546875 -0.984375 C 10.910156 -0.628906 10.1875 -0.375 9.375 -0.21875 C 8.5625 -0.0703125 7.707031 0 6.8125 0 L 1.328125 0 L 1.328125 -16.484375 L 6.5625 -16.484375 C 7.40625 -16.484375 8.207031 -16.414062 8.96875 -16.28125 C 9.726562 -16.144531 10.398438 -15.914062 10.984375 -15.59375 C 11.566406 -15.269531 12.023438 -14.835938 12.359375 -14.296875 C 12.703125 -13.753906 12.875 -13.082031 12.875 -12.28125 C 12.875 -11.625 12.734375 -11.054688 12.453125 -10.578125 C 12.179688 -10.097656 11.8125 -9.703125 11.34375 -9.390625 C 10.882812 -9.085938 10.390625 -8.867188 9.859375 -8.734375 C 10.441406 -8.640625 11.019531 -8.453125 11.59375 -8.171875 C 12.164062 -7.898438 12.640625 -7.492188 13.015625 -6.953125 C 13.398438 -6.421875 13.59375 -5.710938 13.59375 -4.828125 Z M 13.59375 -4.828125 "/></g></g></g><g fill="#ffffff" fill-opacity="1"><g transform="translate(165.433313, 91.303263)"><g><path d="M 1.78125 0 L 1.78125 -2.515625 L 3.453125 -2.515625 L 3.453125 -10.140625 L 1.78125 -10.140625 L 1.78125 -12.640625 L 6.3125 -12.640625 L 7.015625 -9.796875 C 7.460938 -10.878906 8.035156 -11.6875 8.734375 -12.21875 C 9.441406 -12.75 10.300781 -13.015625 11.3125 -13.015625 C 11.738281 -13.015625 12.117188 -12.976562 12.453125 -12.90625 C 12.785156 -12.84375 13.097656 -12.753906 13.390625 -12.640625 L 12.25 -9.53125 C 12.019531 -9.59375 11.789062 -9.640625 11.5625 -9.671875 C 11.332031 -9.703125 11.078125 -9.71875 10.796875 -9.71875 C 9.972656 -9.71875 9.25 -9.378906 8.625 -8.703125 C 8.007812 -8.035156 7.535156 -7.179688 7.203125 -6.140625 L 7.203125 -2.515625 L 9.703125 -2.515625 L 9.703125 0 Z M 10.34375 -7.359375 L 10.34375 -11.046875 L 10.90625 -12.640625 L 13.390625 -12.640625 L 12.703125 -7.359375 Z M 10.34375 -7.359375 "/></g></g></g><g fill="#ffffff" fill-opacity="1"><g transform="translate(179.713241, 91.303263)"><g><path d="M 9.390625 -12.640625 L 9.390625 -2.5625 L 12.59375 -2.5625 L 12.59375 0 L 2.046875 0 L 2.046875 -2.5625 L 5.625 -2.5625 L 5.625 -10.0625 L 2.171875 -10.0625 L 2.171875 -12.640625 Z M 7.109375 -19.25 C 7.765625 -19.25 8.296875 -19.046875 8.703125 -18.640625 C 9.117188 -18.234375 9.328125 -17.734375 9.328125 -17.140625 C 9.328125 -16.535156 9.117188 -16.023438 8.703125 -15.609375 C 8.296875 -15.203125 7.765625 -15 7.109375 -15 C 6.453125 -15 5.914062 -15.203125 5.5 -15.609375 C 5.082031 -16.023438 4.875 -16.535156 4.875 -17.140625 C 4.875 -17.734375 5.082031 -18.234375 5.5 -18.640625 C 5.914062 -19.046875 6.453125 -19.25 7.109375 -19.25 Z M 7.109375 -19.25 "/></g></g></g><g fill="#ffffff" fill-opacity="1"><g transform="translate(193.993169, 91.303263)"><g><path d="M 13.046875 -0.734375 C 12.546875 -0.421875 11.945312 -0.15625 11.25 0.0625 C 10.550781 0.289062 9.769531 0.40625 8.90625 0.40625 C 7.25 0.40625 6.019531 -0.015625 5.21875 -0.859375 C 4.414062 -1.703125 4.015625 -2.851562 4.015625 -4.3125 L 4.015625 -10.046875 L 1.375 -10.046875 L 1.375 -12.640625 L 4.015625 -12.640625 L 4.015625 -15.375 L 7.78125 -15.828125 L 7.78125 -12.640625 L 11.84375 -12.640625 L 11.484375 -10.046875 L 7.78125 -10.046875 L 7.78125 -4.3125 C 7.78125 -3.6875 7.921875 -3.238281 8.203125 -2.96875 C 8.492188 -2.695312 8.953125 -2.5625 9.578125 -2.5625 C 10.023438 -2.5625 10.429688 -2.613281 10.796875 -2.71875 C 11.160156 -2.820312 11.492188 -2.957031 11.796875 -3.125 Z M 13.046875 -0.734375 "/></g></g></g><g fill="#ffffff" fill-opacity="1"><g transform="translate(208.273098, 91.303263)"><g><path d="M 7.140625 -13.046875 C 8.441406 -13.046875 9.546875 -12.769531 10.453125 -12.21875 C 11.367188 -11.664062 12.066406 -10.882812 12.546875 -9.875 C 13.035156 -8.875 13.28125 -7.703125 13.28125 -6.359375 C 13.28125 -4.953125 13.035156 -3.742188 12.546875 -2.734375 C 12.054688 -1.722656 11.351562 -0.945312 10.4375 -0.40625 C 9.53125 0.132812 8.429688 0.40625 7.140625 0.40625 C 5.859375 0.40625 4.757812 0.140625 3.84375 -0.390625 C 2.925781 -0.921875 2.222656 -1.691406 1.734375 -2.703125 C 1.242188 -3.710938 1 -4.921875 1 -6.328125 C 1 -7.671875 1.242188 -8.84375 1.734375 -9.84375 C 2.222656 -10.851562 2.925781 -11.640625 3.84375 -12.203125 C 4.757812 -12.765625 5.859375 -13.046875 7.140625 -13.046875 Z M 7.140625 -10.28125 C 6.367188 -10.28125 5.796875 -9.960938 5.421875 -9.328125 C 5.054688 -8.703125 4.875 -7.703125 4.875 -6.328125 C 4.875 -4.929688 5.054688 -3.921875 5.421875 -3.296875 C 5.796875 -2.671875 6.367188 -2.359375 7.140625 -2.359375 C 7.910156 -2.359375 8.476562 -2.671875 8.84375 -3.296875 C 9.21875 -3.921875 9.40625 -4.941406 9.40625 -6.359375 C 9.40625 -7.722656 9.21875 -8.71875 8.84375 -9.34375 C 8.476562 -9.96875 7.910156 -10.28125 7.140625 -10.28125 Z M 7.140625 -10.28125 "/></g></g></g></svg>